# 3ds Max Wavefront OBJ Exporter v0.97b - (c)2007 guruware
# File Created: 17.12.2016 21:47:08

mtllib yildizX.mtl

#
# object Star001
#

v  -0.0000 -0.6723 -0.0000
v  -0.0000 -1.1585 -0.4563
v  0.4034 -1.1585 -0.4563
v  0.4034 -0.6723 -0.0000
v  -0.0000 -1.2729 -0.5767
v  0.4034 -1.2729 -0.5767
v  -0.0000 -1.3385 -0.6753
v  0.4034 -1.3385 -0.6753
v  -0.0000 -1.3565 -0.7503
v  0.4034 -1.3565 -0.7503
v  -0.0000 -1.3280 -0.7997
v  0.4034 -1.3280 -0.7997
v  -0.0000 -1.2541 -0.8215
v  0.4034 -1.2541 -0.8215
v  -0.0000 -1.1359 -0.8140
v  0.4034 -1.1359 -0.8140
v  -0.0000 -0.9745 -0.7751
v  0.4034 -0.9745 -0.7751
v  -0.0000 -0.3362 -0.5823
v  0.4034 -0.3362 -0.5823
v  -0.0000 -0.1841 -1.2315
v  0.4034 -0.1841 -1.2315
v  -0.0000 -0.1370 -1.3907
v  0.4034 -0.1370 -1.3907
v  -0.0000 -0.0844 -1.4969
v  0.4034 -0.0844 -1.4969
v  -0.0000 -0.0285 -1.5499
v  0.4034 -0.0285 -1.5499
v  0.0000 0.0285 -1.5499
v  0.4034 0.0285 -1.5499
v  0.0000 0.0844 -1.4969
v  0.4034 0.0844 -1.4969
v  0.0000 0.1370 -1.3907
v  0.4034 0.1370 -1.3907
v  0.0000 0.1841 -1.2315
v  0.4034 0.1841 -1.2315
v  0.0000 0.3362 -0.5823
v  0.4034 0.3362 -0.5823
v  0.0000 0.9745 -0.7751
v  0.4034 0.9745 -0.7751
v  0.0000 1.1359 -0.8140
v  0.4034 1.1359 -0.8140
v  0.0000 1.2541 -0.8215
v  0.4034 1.2541 -0.8215
v  0.0000 1.3280 -0.7997
v  0.4034 1.3280 -0.7997
v  0.0000 1.3565 -0.7503
v  0.4034 1.3565 -0.7503
v  0.0000 1.3385 -0.6753
v  0.4034 1.3385 -0.6753
v  0.0000 1.2729 -0.5767
v  0.4034 1.2729 -0.5767
v  0.0000 1.1585 -0.4563
v  0.4034 1.1585 -0.4563
v  0.0000 0.6723 0.0000
v  0.4034 0.6723 0.0000
v  0.0000 1.1585 0.4563
v  0.4034 1.1585 0.4563
v  0.0000 1.2729 0.5767
v  0.4034 1.2729 0.5767
v  0.0000 1.3385 0.6753
v  0.4034 1.3385 0.6753
v  0.0000 1.3565 0.7503
v  0.4034 1.3565 0.7503
v  0.0000 1.3280 0.7997
v  0.4034 1.3280 0.7997
v  0.0000 1.2541 0.8215
v  0.4034 1.2541 0.8215
v  0.0000 1.1359 0.8140
v  0.4034 1.1359 0.8140
v  0.0000 0.9745 0.7751
v  0.4034 0.9745 0.7751
v  0.0000 0.3362 0.5823
v  0.4034 0.3362 0.5823
v  0.0000 0.1841 1.2315
v  0.4034 0.1841 1.2315
v  0.0000 0.1370 1.3907
v  0.4034 0.1370 1.3907
v  0.0000 0.0844 1.4969
v  0.4034 0.0844 1.4969
v  0.0000 0.0285 1.5499
v  0.4034 0.0285 1.5499
v  -0.0000 -0.0285 1.5499
v  0.4034 -0.0285 1.5499
v  -0.0000 -0.0844 1.4969
v  0.4034 -0.0844 1.4969
v  -0.0000 -0.1370 1.3907
v  0.4034 -0.1370 1.3907
v  -0.0000 -0.1841 1.2315
v  0.4034 -0.1841 1.2315
v  -0.0000 -0.3362 0.5823
v  0.4034 -0.3362 0.5823
v  -0.0000 -0.9745 0.7751
v  0.4034 -0.9745 0.7751
v  -0.0000 -1.1359 0.8140
v  0.4034 -1.1359 0.8140
v  -0.0000 -1.2541 0.8215
v  0.4034 -1.2541 0.8215
v  -0.0000 -1.3280 0.7997
v  0.4034 -1.3280 0.7997
v  -0.0000 -1.3565 0.7503
v  0.4034 -1.3565 0.7503
v  -0.0000 -1.3385 0.6753
v  0.4034 -1.3385 0.6753
v  -0.0000 -1.2729 0.5767
v  0.4034 -1.2729 0.5767
v  -0.0000 -1.1585 0.4563
v  0.4034 -1.1585 0.4563
# 108 vertices

vn -0.0000 -0.6844 0.7291
vn -0.0000 -0.7049 0.7093
vn -0.0000 -0.7816 0.6238
vn -0.0000 -0.9165 0.4000
vn -0.0000 -0.9897 -0.1434
vn -0.0000 -0.6190 -0.7854
vn -0.0000 -0.1119 -0.9937
vn 0.0000 0.1494 -0.9888
vn 0.0000 0.2618 -0.9651
vn 0.0000 0.2893 -0.9573
vn -0.0000 -0.9736 -0.2281
vn -0.0000 -0.9667 -0.2558
vn -0.0000 -0.9310 -0.3650
vn -0.0000 -0.8047 -0.5937
vn -0.0000 -0.3706 -0.9288
vn 0.0000 0.3706 -0.9288
vn 0.0000 0.8047 -0.5937
vn 0.0000 0.9310 -0.3650
vn 0.0000 0.9667 -0.2558
vn 0.0000 0.9736 -0.2281
vn -0.0000 -0.2893 -0.9573
vn -0.0000 -0.2618 -0.9651
vn -0.0000 -0.1494 -0.9888
vn 0.0000 0.1119 -0.9937
vn 0.0000 0.6190 -0.7854
vn 0.0000 0.9897 -0.1434
vn 0.0000 0.9165 0.4000
vn 0.0000 0.7816 0.6238
vn 0.0000 0.7049 0.7093
vn 0.0000 0.6844 0.7291
vn 0.0000 0.6844 -0.7291
vn 0.0000 0.7049 -0.7093
vn 0.0000 0.7816 -0.6238
vn 0.0000 0.9165 -0.4000
vn 0.0000 0.9897 0.1434
vn 0.0000 0.6190 0.7854
vn 0.0000 0.1119 0.9937
vn -0.0000 -0.1494 0.9888
vn -0.0000 -0.2618 0.9651
vn -0.0000 -0.2893 0.9573
vn 0.0000 0.9736 0.2281
vn 0.0000 0.9667 0.2558
vn 0.0000 0.9310 0.3650
vn 0.0000 0.8047 0.5937
vn 0.0000 0.3706 0.9288
vn -0.0000 -0.3706 0.9288
vn -0.0000 -0.8047 0.5937
vn -0.0000 -0.9310 0.3650
vn -0.0000 -0.9667 0.2558
vn -0.0000 -0.9736 0.2281
vn 0.0000 0.2893 0.9573
vn 0.0000 0.2618 0.9651
vn 0.0000 0.1494 0.9888
vn -0.0000 -0.1119 0.9937
vn -0.0000 -0.6190 0.7854
vn -0.0000 -0.9897 0.1434
vn -0.0000 -0.9165 -0.4000
vn -0.0000 -0.7816 -0.6238
vn -0.0000 -0.7049 -0.7093
vn -0.0000 -0.6844 -0.7291
vn -1.0000 0.0000 -0.0000
vn 1.0000 -0.0000 -0.0000
# 62 vertex normals

g Star001
usemtl wire_000000000
s 1
f 1//1 2//2 3//2 4//1 
s 3
f 2//2 5//3 6//3 3//2 
s 2
f 5//3 7//4 8//4 6//3 
f 7//4 9//5 10//5 8//4 
f 9//5 11//6 12//6 10//5 
f 11//6 13//7 14//7 12//6 
f 13//7 15//8 16//8 14//7 
f 15//8 17//9 18//9 16//8 
f 17//9 19//10 20//10 18//9 
s 4
f 19//11 21//12 22//12 20//11 
f 21//12 23//13 24//13 22//12 
f 23//13 25//14 26//14 24//13 
f 25//14 27//15 28//15 26//14 
f 27//15 29//16 30//16 28//15 
f 29//16 31//17 32//17 30//16 
f 31//17 33//18 34//18 32//17 
f 33//18 35//19 36//19 34//18 
f 35//19 37//20 38//20 36//19 
s 2
f 37//21 39//22 40//22 38//21 
f 39//22 41//23 42//23 40//22 
f 41//23 43//24 44//24 42//23 
f 43//24 45//25 46//25 44//24 
f 45//25 47//26 48//26 46//25 
f 47//26 49//27 50//27 48//26 
f 49//27 51//28 52//28 50//27 
f 51//28 53//29 54//29 52//28 
f 53//29 55//30 56//30 54//29 
s 4
f 55//31 57//32 58//32 56//31 
f 57//32 59//33 60//33 58//32 
f 59//33 61//34 62//34 60//33 
f 61//34 63//35 64//35 62//34 
f 63//35 65//36 66//36 64//35 
f 65//36 67//37 68//37 66//36 
f 67//37 69//38 70//38 68//37 
f 69//38 71//39 72//39 70//38 
f 71//39 73//40 74//40 72//39 
s 2
f 73//41 75//42 76//42 74//41 
f 75//42 77//43 78//43 76//42 
f 77//43 79//44 80//44 78//43 
f 79//44 81//45 82//45 80//44 
f 81//45 83//46 84//46 82//45 
f 83//46 85//47 86//47 84//46 
f 85//47 87//48 88//48 86//47 
f 87//48 89//49 90//49 88//48 
f 89//49 91//50 92//50 90//49 
s 4
f 91//51 93//52 94//52 92//51 
f 93//52 95//53 96//53 94//52 
f 95//53 97//54 98//54 96//53 
f 97//54 99//55 100//55 98//54 
f 99//55 101//56 102//56 100//55 
f 101//56 103//57 104//57 102//56 
f 103//57 105//58 106//58 104//57 
f 105//58 107//59 108//59 106//58 
f 107//59 1//60 4//60 108//59 
s 16
f 99//61 97//61 103//61 101//61 
f 95//61 105//61 103//61 97//61 
f 93//61 107//61 105//61 95//61 
f 93//61 91//61 1//61 107//61 
f 27//61 25//61 31//61 29//61 
f 23//61 33//61 31//61 25//61 
f 23//61 21//61 35//61 33//61 
f 19//61 37//61 35//61 21//61 
f 61//61 67//61 65//61 63//61 
f 59//61 69//61 67//61 61//61 
f 57//61 71//61 69//61 59//61 
f 57//61 55//61 73//61 71//61 
f 9//61 7//61 13//61 11//61 
f 5//61 15//61 13//61 7//61 
f 2//61 17//61 15//61 5//61 
f 1//61 19//61 17//61 2//61 
f 91//61 37//61 19//61 1//61 
f 43//61 49//61 47//61 45//61 
f 41//61 51//61 49//61 43//61 
f 39//61 53//61 51//61 41//61 
f 39//61 37//61 55//61 53//61 
f 91//61 73//61 55//61 37//61 
f 89//61 75//61 73//61 91//61 
f 87//61 77//61 75//61 89//61 
f 85//61 79//61 77//61 87//61 
f 83//61 81//61 79//61 85//61 
f 100//62 102//62 104//62 98//62 
f 96//62 98//62 104//62 106//62 
f 94//62 96//62 106//62 108//62 
f 94//62 108//62 4//62 92//62 
f 28//62 30//62 32//62 26//62 
f 24//62 26//62 32//62 34//62 
f 24//62 34//62 36//62 22//62 
f 20//62 22//62 36//62 38//62 
f 62//62 64//62 66//62 68//62 
f 60//62 62//62 68//62 70//62 
f 58//62 60//62 70//62 72//62 
f 58//62 72//62 74//62 56//62 
f 10//62 12//62 14//62 8//62 
f 6//62 8//62 14//62 16//62 
f 3//62 6//62 16//62 18//62 
f 4//62 3//62 18//62 20//62 
f 92//62 4//62 20//62 38//62 
f 44//62 46//62 48//62 50//62 
f 42//62 44//62 50//62 52//62 
f 40//62 42//62 52//62 54//62 
f 40//62 54//62 56//62 38//62 
f 92//62 38//62 56//62 74//62 
f 90//62 92//62 74//62 76//62 
f 88//62 90//62 76//62 78//62 
f 86//62 88//62 78//62 80//62 
f 84//62 86//62 80//62 82//62 
# 106 polygons

